<svg xmlns="http://www.w3.org/2000/svg" viewBox="-2.2 314.1 313.3 313.3" role="img"><title>PŠENIČNIK</title><path fill="#002D8A" d="M103.005 395.73L132.622 395.78C132.738 405.45 132.273 416.68 133.011 426.12C135.659 423.57 138.592 420.6 141.283 418.16C155.727 417.98 170.173 417.95 184.617 418.06C211.827 447.8 238.76 477.79 265.414 508.03C276.17 520.14 289.115 533.12 299.101 545.79L263.669 545.77C245.947 526.92 228.624 507.53 211.468 488.18C198.999 474.11 185.14 459.73 173.18 445.36C153.126 468.05 133.196 490.86 113.388 513.77C104.07 524.46 94.485 534.87 85.393 545.76C60.2008 545.84 35.0071 545.76 9.8157 545.49C15.23 539.05 21.4612 532.86 27.4753 526.94C52.8419 502 77.114 475.56 102.837 451C103.307 446.65 103.047 437.58 103.051 432.77L103.005 395.73Z"/><path fill="#A5742F" d="M103.005 395.73L132.622 395.78C132.738 405.45 132.273 416.68 133.011 426.12C133.023 429.95 133.013 433.78 132.981 437.59C129.39 441.91 123.736 447.57 119.569 451.3C114.828 451.42 107.563 451.42 102.837 451C103.307 446.65 103.047 437.58 103.051 432.77L103.005 395.73Z"/><path fill="#002D8A" d="M169.08 464.75C171.087 466.41 175.681 471.46 177.712 473.57L197.734 494.54C208.481 505.52 219.106 516.63 229.609 527.84C233.667 532.15 241.69 540.23 244.946 544.53L244.404 545.64C243.608 545.55 241.417 545.38 240.936 544.83C233.34 536.25 168.332 470.79 167.535 466.98L169.08 464.75Z"/><path fill="#002D8A" d="M156.141 478.92C157.132 479.02 157.446 479.16 158.409 479.44C165.272 486.25 219.465 541.15 220.263 544.77C218.94 544.87 218.165 544.82 216.833 544.75C206.844 535.55 193.656 520.41 183.59 510.17C176.997 503.47 160.946 487.44 155.863 481.02L156.141 478.92Z"/></svg>